<svg xmlns="http://www.w3.org/2000/svg" xmlns:xlink="http://www.w3.org/1999/xlink" viewBox="0,0,256,256" width="50px" height="50px" fill-rule="nonzero"><g fill="#307b8e" fill-rule="nonzero" stroke="none" stroke-width="1" stroke-linecap="butt" stroke-linejoin="miter" stroke-miterlimit="10" stroke-dasharray="" stroke-dashoffset="0" font-family="none" font-weight="none" font-size="none" text-anchor="none" style="mix-blend-mode: normal"><g transform="scale(10.66667,10.66667)"><path d="M22,5.75v12.48c0,0.49 -0.28,0.94 -0.72,1.15c-0.91,0.43 -2.46,1.18 -3.33,1.59c0.03,-0.16 0.05,-0.33 0.05,-0.5v-16.94c0,-0.23 -0.03,-0.41 -0.06,-0.53c0.94,0.46 2.44,1.18 3.33,1.6c0.45,0.21 0.73,0.66 0.73,1.15zM3.91,13.35c0.89,0.8 1.73,1.56 2.51,2.28l-1.48,1.12c-0.37,0.28 -0.89,0.27 -1.25,-0.03l-0.94,-0.79c-0.46,-0.39 -0.48,-1.09 -0.03,-1.5c0.33,-0.3 0.74,-0.67 1.19,-1.08zM16,3.53v4.81l-3.16,2.4l-3.3,-2.5c2.29,-2.07 4.46,-4.05 5.59,-5.1c0.23,-0.22 0.56,-0.16 0.74,0.04c0.05,0.06 0.09,0.13 0.11,0.22c0.01,0.04 0.02,0.08 0.02,0.13zM16,20.47v-4.81l-11.062,-8.408c-0.372,-0.283 -0.889,-0.27 -1.247,0.03l-0.937,0.784c-0.465,0.39 -0.483,1.096 -0.034,1.503c2.747,2.488 9.998,9.06 12.41,11.291c0.332,0.307 0.87,0.07 0.87,-0.39z"></path></g></g></svg>